<?xml version="1.0" encoding="UTF-8"?>
<svg version="1.1" xmlns="http://www.w3.org/2000/svg" width="3240" height="4860">
<path d="M0 0 C2.42286763 1.09810285 3.87422676 2.40204714 5.75936425 4.28251219 C6.49597482 5.01006612 7.23258538 5.73762004 7.99151748 6.48722106 C8.79375643 7.29478794 9.59599538 8.10235481 10.4225446 8.93439341 C11.28013031 9.78588801 12.13771602 10.63738262 13.02128917 11.51468009 C15.40262866 13.88222676 17.77703985 16.25635677 20.14875555 18.63352144 C22.70708744 21.19451879 25.27398864 23.74690222 27.83976567 26.3004365 C32.86536371 31.3049597 37.8826549 36.31773198 42.89683447 41.33369318 C46.97053126 45.40869627 51.04677018 49.48113916 55.12483609 53.55176973 C56.29831185 54.72314638 57.47178686 55.89452378 58.64526111 57.06590194 C59.52127952 57.94035506 59.52127952 57.94035506 60.41499528 58.8324739 C71.46410756 69.8626764 82.50321823 80.90284729 93.53946855 91.9459165 C103.64594679 102.05797396 113.76557339 112.1567565 123.89137427 122.24946175 C134.28013145 132.60452592 144.65962078 142.96879722 155.02923137 153.34303588 C160.85453531 159.17058854 166.68355823 164.99430517 172.52239239 170.80830431 C177.49161519 175.75657091 182.45212192 180.71337229 187.4013897 185.6816012 C189.92864075 188.21804429 192.45981694 190.75022373 195.00192654 193.2717824 C197.7525446 196.00040791 200.48370251 198.74798072 203.21307194 201.49786997 C204.0264645 202.29874468 204.83985705 203.09961939 205.67789787 203.92476302 C206.76325562 205.02782878 206.76325562 205.02782878 207.87053978 206.15317869 C208.50364361 206.78601013 209.13674743 207.41884157 209.78903621 208.07084972 C211.00034916 209.90660715 211.00034916 209.90660715 210.90695632 211.90625799 C209.80885346 214.32912562 208.50490918 215.78048474 206.62444413 217.66562223 C205.8968902 218.4022328 205.16933627 219.13884337 204.41973525 219.89777547 C203.61216838 220.70001442 202.80460151 221.50225337 201.97256291 222.32880259 C201.1210683 223.18638829 200.2695737 224.043974 199.39227623 224.92754716 C197.02472955 227.30888665 194.65059955 229.68329784 192.27343488 232.05501354 C189.71243752 234.61334543 187.16005409 237.18024662 184.60651982 239.74602365 C179.60199661 244.7716217 174.58922433 249.78891289 169.57326313 254.80309246 C165.49826004 258.87678925 161.42581715 262.95302817 157.35518658 267.03109407 C156.18380994 268.20456984 155.01243254 269.37804484 153.84105438 270.5515191 C152.96660126 271.42753751 152.96660126 271.42753751 152.07448242 272.32125326 C141.04427992 283.37036554 130.00410903 294.40947622 118.96103982 305.44572654 C108.84898235 315.55220478 98.75019981 325.67183138 88.65749457 335.79763225 C78.3024304 346.18638944 67.93815909 356.56587877 57.56392044 366.93548936 C51.73636777 372.7607933 45.91265115 378.58981622 40.09865201 384.42865038 C35.15038541 389.39787318 30.19358403 394.35837991 25.22535511 399.30764768 C22.68891202 401.83489874 20.15673259 404.36607492 17.63517392 406.90818453 C14.90654841 409.65880258 12.1589756 412.3899605 9.40908635 415.11932993 C8.60821164 415.93272249 7.80733693 416.74611504 6.98219329 417.58415586 C5.87912754 418.6695136 5.87912754 418.6695136 4.75377762 419.77679777 C4.12094618 420.40990159 3.48811475 421.04300542 2.8361066 421.6952942 C1.00034916 422.90660715 1.00034916 422.90660715 -0.99930167 422.8132143 C-3.42216931 421.71511145 -4.87352843 420.41116717 -6.75866592 418.53070211 C-7.49527649 417.80314819 -8.23188706 417.07559426 -8.99081916 416.32599324 C-9.7930581 415.51842637 -10.59529705 414.71085949 -11.42184627 413.8788209 C-12.27943198 413.02732629 -13.13701769 412.17583169 -14.02059084 411.29853421 C-16.40193033 408.93098754 -18.77634152 406.55685754 -21.14805722 404.17969286 C-23.70638911 401.61869551 -26.27329031 399.06631208 -28.83906734 396.51277781 C-33.86466538 391.5082546 -38.88195657 386.49548232 -43.89613614 381.47952112 C-47.96983293 377.40451803 -52.04607185 373.33207514 -56.12413776 369.26144457 C-57.29761352 368.09006793 -58.47108853 366.91869052 -59.64456278 365.74731237 C-60.22857506 365.16434362 -60.81258733 364.58137487 -61.41429695 363.98074041 C-72.46340923 352.9505379 -83.5025199 341.91036701 -94.53877022 330.86729781 C-104.64524846 320.75524034 -114.76487506 310.6564578 -124.89067594 300.56375255 C-135.27943312 290.20868838 -145.65892245 279.84441708 -156.02853304 269.47017843 C-161.85383698 263.64262576 -167.68285991 257.81890913 -173.52169406 252.00490999 C-178.49091686 247.05664339 -183.45142359 242.09984202 -188.40069137 237.1316131 C-190.92794242 234.59517001 -193.45911861 232.06299058 -196.00122821 229.5414319 C-198.75184627 226.8128064 -201.48300419 224.06523359 -204.21237361 221.31534433 C-205.02576617 220.51446963 -205.83915873 219.71359492 -206.67719954 218.88845128 C-207.76255729 217.78538552 -207.76255729 217.78538552 -208.86984146 216.66003561 C-209.81949719 215.71078845 -209.81949719 215.71078845 -210.78833789 214.74236459 C-211.99965084 212.90660715 -211.99965084 212.90660715 -211.90625799 210.90695632 C-210.80815513 208.48408868 -209.50421085 207.03272956 -207.6237458 205.14759207 C-206.89619187 204.4109815 -206.16863794 203.67437093 -205.41903692 202.91543883 C-204.61147005 202.11319988 -203.80390318 201.31096094 -202.97186458 200.48441172 C-202.12036998 199.62682601 -201.26887537 198.7692403 -200.3915779 197.88566715 C-198.02403123 195.50432765 -195.64990122 193.12991646 -193.27273655 190.75820076 C-190.71173919 188.19986888 -188.15935576 185.63296768 -185.60582149 183.06719065 C-180.60129829 178.0415926 -175.588526 173.02430142 -170.5725648 168.01012184 C-166.49756171 163.93642505 -162.42511882 159.86018614 -158.35448825 155.78212023 C-157.18311161 154.60864446 -156.01173421 153.43516946 -154.84035605 152.26169521 C-154.2573873 151.67768293 -153.67441856 151.09367066 -153.07378409 150.49196104 C-142.04358159 139.44284876 -131.0034107 128.40373808 -119.96034149 117.36748777 C-109.84828403 107.26100952 -99.74950148 97.14138292 -89.65679624 87.01558205 C-79.30173207 76.62682487 -68.93746076 66.24733554 -58.56322211 55.87772495 C-52.73566944 50.052421 -46.91195282 44.22339808 -41.09795368 38.38456392 C-36.14968708 33.41534113 -31.1928857 28.45483439 -26.22465678 23.50556662 C-23.68821369 20.97831556 -21.15603426 18.44713938 -18.63447559 15.90502977 C-15.90585008 13.15441172 -13.15827727 10.4232538 -10.40838802 7.69388437 C-9.60751331 6.88049182 -8.8066386 6.06709926 -7.98149496 5.22905844 C-6.87842921 4.1437007 -6.87842921 4.1437007 -5.7530793 3.03641653 C-4.80383214 2.0867608 -4.80383214 2.0867608 -3.83540827 1.1179201 C-1.99965084 -0.09339285 -1.99965084 -0.09339285 0 0 Z " fill="#F53819" transform="translate(1210.999650835991,999.0933928489685)"/>
<path d="M0 0 C3.17285278 2.67822461 4.76232041 6.10400203 6.57070446 9.75550556 C6.9202826 10.44940273 7.26986074 11.14329989 7.63003215 11.85822424 C8.80685647 14.19785158 9.97504851 16.541684 11.14335632 18.88557434 C11.99102454 20.57530894 12.83921216 22.26478307 13.68787605 23.95401782 C16.02386349 28.60758877 18.35229384 33.26490604 20.67950976 37.92286837 C23.18850766 42.94147492 25.7043628 47.95664238 28.21929932 52.97227478 C33.14720756 62.80314313 38.0684193 72.63734895 42.98701914 82.4728773 C46.98361713 90.46464924 50.98210684 98.45547174 54.98194313 106.4456234 C64.46909026 125.39779319 73.95476625 144.35069598 83.43243694 163.3076067 C83.8872194 164.21724172 83.8872194 164.21724172 84.35118938 165.14525321 C85.88792366 168.21897108 87.42463881 171.29269851 88.96134975 174.36642805 C89.26655536 174.97689911 89.57176097 175.58737017 89.88621524 176.21634036 C90.50341522 177.45086163 91.12061357 178.68538372 91.73781028 179.91990662 C101.34269637 199.13151748 110.95731592 218.33822984 120.5793457 237.54125977 C131.38552661 259.10756169 142.1835939 280.6778941 152.9702552 302.25396842 C158.68334967 313.6811548 164.40015184 325.10645152 170.1265316 336.52698708 C175.00124895 346.2491664 179.86769716 355.97542824 184.72334679 365.70714573 C187.20231267 370.67490308 189.68515579 375.64062183 192.1784153 380.60122299 C194.45908907 385.13910472 196.72869183 389.68234196 198.98946283 394.23017045 C199.81087714 395.87763267 200.6363837 397.52306191 201.46629723 399.16625903 C202.59093936 401.39448246 203.70063551 403.6295405 204.80681896 405.86697102 C205.13485224 406.50813302 205.46288551 407.14929503 205.80085918 407.80988619 C207.88316559 412.0757606 208 413.93595949 208 419 C70.39 419 -67.22 419 -209 419 C-207.44866827 414.34600482 -205.72844375 410.17453248 -203.53951931 405.83014965 C-203.18970624 405.12791622 -202.83989317 404.4256828 -202.4794797 403.70216957 C-201.3053274 401.34756442 -200.12549049 398.99585493 -198.94566345 396.64408875 C-198.09460083 394.94037532 -197.24388846 393.23648689 -196.39349657 391.53243858 C-194.05482194 386.84867064 -191.7111558 382.16741573 -189.36667192 377.48655355 C-186.83958492 372.43895259 -184.31710535 367.38904985 -181.79405212 362.33943176 C-176.85094114 352.44816579 -171.9035569 342.55904313 -166.95472925 332.67063632 C-161.19643579 321.16442497 -155.44231775 309.65612736 -149.68836886 298.14774296 C-139.11582651 277.00214238 -128.53906334 255.85865623 -117.9603239 234.71615547 C-108.2967454 215.4026304 -98.63612905 196.08762673 -88.97827148 176.77124023 C-88.35783692 175.53033069 -87.73740234 174.28942117 -87.11696773 173.04851165 C-86.81024061 172.43503705 -86.50351349 171.82156246 -86.1874916 171.18949773 C-84.64356577 168.10154527 -83.09963586 165.01359485 -81.55570126 161.92564678 C-81.25112628 161.31648011 -80.9465513 160.70731344 -80.63274677 160.07968717 C-70.83834108 140.4904327 -61.04091184 120.90269047 -51.24323292 101.31507295 C-47.22653735 93.28470373 -43.21062732 85.25394196 -39.19495964 77.2230587 C-34.30611086 67.44604172 -29.41575793 57.66977878 -24.52349799 47.89446821 C-22.02520777 42.90251944 -19.52756051 37.91025171 -17.03162384 32.9171257 C-14.75056758 28.35392383 -12.46768677 23.79163985 -10.18329114 19.23010883 C-9.35356886 17.57248809 -8.52453199 15.91452407 -7.69621956 14.25619837 C-6.57752193 12.01675914 -5.45641213 9.77854475 -4.33463955 7.54064465 C-3.84369487 6.55567231 -3.84369487 6.55567231 -3.34283212 5.55080155 C-1.11415499 1.11415499 -1.11415499 1.11415499 0 0 Z " fill="#FBF8F4" transform="translate(2839,4248)"/>
<path d="M0 0 C3.12841103 2.6527758 4.70839503 6.00039222 6.49261761 9.6105051 C6.83375388 10.28871692 7.17489015 10.96692873 7.52636388 11.66569242 C8.67447615 13.95192639 9.81394433 16.24236103 10.95353699 18.53285217 C11.78057622 20.18419162 12.60813999 21.83526846 13.4361847 23.48610395 C15.71514098 28.033398 17.98656171 32.58442071 20.25679481 37.13607466 C22.70439878 42.0401027 25.15889478 46.94067949 27.61253357 51.84169006 C32.41982767 61.44677587 37.22066416 71.05507549 42.01930138 80.66448862 C47.60269874 91.84488237 53.19218027 103.02223044 58.78186468 114.1994819 C69.05284927 134.73816266 79.31734647 155.28008054 89.57893068 175.82345894 C98.95296044 194.58989351 108.33201473 213.35380819 117.71557617 232.11547852 C118.31821362 233.32040699 118.92085094 234.52533553 119.52348813 235.73026413 C119.82141632 236.32594953 120.11934451 236.92163492 120.42630084 237.53537138 C121.92592971 240.53377564 123.42554671 243.53218584 124.92515087 246.53060246 C125.22098021 247.12210405 125.51680955 247.71360564 125.82160341 248.32303153 C133.65580207 263.98744217 141.48620058 279.65375211 149.31541997 295.32065195 C150.43708417 297.56518769 151.55874891 299.80972315 152.6804142 302.05425835 C153.23235129 303.15873607 153.78428838 304.26321379 154.35295084 305.40116053 C158.25146106 313.2020679 162.15168726 321.00211592 166.05251122 328.80186653 C170.80237 338.29946698 175.54930595 347.7985215 180.29249784 357.29945333 C182.71475779 362.15124093 185.13830728 367.00237305 187.56529236 371.85179901 C189.78357013 376.28430191 191.99818858 380.71861225 194.20980183 385.15444403 C195.01382684 386.76544125 195.81922355 388.3757547 196.62607136 389.98534001 C197.716025 392.16019471 198.80110296 394.33741132 199.88490582 396.51533604 C200.36492313 397.46877595 200.36492313 397.46877595 200.85463777 398.44147727 C203 402.77169463 203 402.77169463 203 405 C69.35 405 -64.3 405 -202 405 C-200.47369257 400.42107772 -198.80180745 396.32063134 -196.6488409 392.04879284 C-196.14184922 391.03089855 -196.14184922 391.03089855 -195.62461528 389.99244073 C-194.49066555 387.71824321 -193.3510346 385.44694159 -192.21141052 383.17558289 C-191.38922153 381.52961664 -190.5673828 379.8834754 -189.74586445 378.23717433 C-187.48700026 373.7130285 -185.22314616 369.19139551 -182.95847285 364.67015541 C-180.51727584 359.79433536 -178.08068712 354.91621318 -175.64352417 350.03837585 C-170.86885727 340.48399844 -166.08991773 330.93176427 -161.30953413 321.38024607 C-155.7471462 310.2658465 -150.18893429 299.14936043 -144.63089121 288.03278766 C-134.41831867 267.60712673 -124.20152514 247.18357936 -113.98275534 226.76101835 C-104.64812537 208.10539058 -95.31645779 189.44828418 -85.98754883 170.78979492 C-85.38823443 169.59112572 -84.78892002 168.39245654 -84.18960559 167.19378736 C-83.89331963 166.6011951 -83.59703368 166.00860284 -83.29176936 165.39805324 C-72.04222631 142.89820686 -60.79011996 120.39964343 -49.53659151 97.90179014 C-45.65665262 90.1449342 -41.77749922 82.38768575 -37.89858818 74.63031578 C-33.17625939 65.18633877 -28.45242642 55.74311589 -23.72668653 46.30084529 C-21.31345753 41.47901886 -18.90087143 36.6568736 -16.48999596 31.83386993 C-14.28665745 27.42610351 -12.08149432 23.01925521 -9.87481654 18.61315963 C-9.07335791 17.0120661 -8.27258457 15.41062931 -7.47253578 13.80883082 C-6.39195886 11.64563282 -5.30896975 9.48366032 -4.22531796 7.32200146 C-3.90925192 6.68781407 -3.59318589 6.05362668 -3.26754209 5.4002215 C-1.11415499 1.11415499 -1.11415499 1.11415499 0 0 Z " fill="#CAD3D3" transform="translate(400,3438)"/>
<path d="M0 0 C30.07547877 26.17826359 49.90434538 57.53510748 54.984375 97.59765625 C55.22547323 103.05305165 55.23007638 108.51246154 55.234375 113.97265625 C55.23504974 114.73842987 55.23572449 115.50420349 55.23641968 116.29318237 C55.22088498 127.36680548 54.82240407 137.83631335 51.984375 148.59765625 C51.67558865 149.9218301 51.36700112 151.24605033 51.05859375 152.5703125 C42.46961499 187.0528966 18.37329858 219.2390629 -12.015625 237.59765625 C-24.45537875 244.86045673 -37.0382918 250.99126405 -51.015625 254.59765625 C-51.80888184 254.80503418 -52.60213867 255.01241211 -53.41943359 255.22607422 C-77.05894521 261.10689668 -103.48136523 260.72951843 -127.015625 254.59765625 C-127.77375488 254.40461914 -128.53188477 254.21158203 -129.31298828 254.01269531 C-148.07895404 249.0253625 -166.43889222 239.41580197 -181.015625 226.59765625 C-181.55864258 226.12328125 -182.10166016 225.64890625 -182.66113281 225.16015625 C-210.72045342 200.48979766 -228.30018659 168.78493572 -233.015625 131.59765625 C-233.25672323 126.14226085 -233.26132638 120.68285096 -233.265625 115.22265625 C-233.26663712 114.07399582 -233.26663712 114.07399582 -233.26766968 112.90213013 C-233.25213498 101.82850702 -232.85365407 91.35899915 -230.015625 80.59765625 C-229.70683865 79.2734824 -229.39825112 77.94926217 -229.08984375 76.625 C-222.76891189 51.24805234 -208.40236654 28.88429984 -190.015625 10.59765625 C-189.14550781 9.72753906 -188.27539062 8.85742188 -187.37890625 7.9609375 C-169.63203503 -8.93705498 -146.89864603 -20.98862688 -123.015625 -26.40234375 C-122.04786133 -26.64138428 -122.04786133 -26.64138428 -121.06054688 -26.88525391 C-80.18764328 -36.73818077 -32.56906119 -26.62056685 0 0 Z " fill="#F53719" transform="translate(2114.015625,3530.40234375)"/>
<path d="M0 0 C2.89747861 2.52703156 4.34463454 5.31334381 6.05533123 8.73313904 C6.34919304 9.31650233 6.64305484 9.89986562 6.94582155 10.50090659 C7.93311444 12.46450809 8.91177168 14.43228797 9.89054871 16.40014648 C10.60209504 17.81978388 11.31416452 19.23915916 12.02671319 20.65829372 C13.986429 24.56516816 15.93860879 28.47576682 17.8895911 32.38700819 C19.99364349 36.60188371 22.10458175 40.81330862 24.21464539 45.025177 C28.34823545 53.27899692 32.47531061 61.53605795 36.60008188 69.79428792 C39.95125128 76.50339329 43.30475302 83.2113279 46.6599369 89.91842651 C47.13689257 90.87187814 47.61384823 91.82532977 48.1052571 92.80767387 C49.07409112 94.74438277 50.04293053 96.68108896 51.01177529 98.61779249 C60.10234601 116.79037346 69.1855484 134.96662953 78.26625023 153.14414346 C86.06459419 168.75423773 93.86922839 184.3611735 101.6784668 199.96582031 C110.73975381 218.07235458 119.79715942 236.18082159 128.84834272 254.29240894 C129.81272689 256.22213298 130.7771161 258.1518545 131.74151039 260.08157349 C132.21605239 261.03112032 132.6905944 261.98066715 133.17951646 262.95898813 C136.53012747 269.66280467 139.88352847 276.36522118 143.23799706 283.06710815 C147.32325305 291.22922286 151.40425314 299.3934482 155.47974368 307.56044364 C157.5607455 311.73035346 159.64368695 315.89926454 161.73180389 320.06561661 C163.64092796 323.87496607 165.54454834 327.6870115 167.44370023 331.50134194 C168.1339711 332.885252 168.82629522 334.2681401 169.52080645 335.64992702 C170.46013457 337.51954027 171.39208892 339.39264568 172.32219219 341.26686096 C173.10349563 342.83019842 173.10349563 342.83019842 173.90058297 344.42511845 C175 347 175 347 175 350 C59.5 350 -56 350 -175 350 C-169.63701807 338.67814925 -164.26924025 327.39034322 -158.66040039 316.19381714 C-157.9725861 314.81703129 -157.28494554 313.44015864 -156.59745979 312.0632087 C-154.74023945 308.34465866 -152.88059033 304.62732825 -151.02047515 300.91022563 C-149.00278931 296.87714227 -146.98743131 292.84289582 -144.97175598 288.80880737 C-141.03796047 280.93679815 -137.10203099 273.06585783 -133.16530329 265.19531463 C-129.96782962 258.80263413 -126.77114522 252.40955953 -123.57501221 246.01620865 C-123.11858573 245.10320247 -122.66215926 244.19019629 -122.19190168 243.24952326 C-121.26453444 241.39446903 -120.33716898 239.53941391 -119.4098053 237.6843579 C-110.74220752 220.34631988 -102.07217048 203.00950255 -93.40128136 185.67311038 C-85.95782617 170.79068019 -78.51648385 155.90719513 -71.07666016 141.02294922 C-62.42549057 123.71526528 -53.7730309 106.4082273 -45.11849308 89.10222733 C-44.1971476 87.25985492 -43.27580379 85.41748167 -42.35446167 83.57510757 C-41.90117908 82.66869666 -41.44789648 81.76228575 -40.98087806 80.82840785 C-37.78250321 74.43252262 -34.58505854 68.03617289 -31.38796997 61.63964462 C-27.50015807 53.86122431 -23.6109347 46.08351174 -19.71986705 38.30671953 C-17.73391096 34.33744433 -15.74860904 30.36784543 -13.76502419 26.39738464 C-11.95239718 22.76916845 -10.13795166 19.14186805 -8.32200038 15.51531459 C-7.66274053 14.19791923 -7.00416689 12.88018022 -6.34632027 11.56207858 C-5.45763679 9.78170588 -4.56628782 8.0026644 -3.67477417 6.2237072 C-3.17880171 5.23192463 -2.68282925 4.24014206 -2.17182732 3.21830547 C-1 1 -1 1 0 0 Z " fill="#CAD3D3" transform="translate(1219,234)"/>
<path d="M0 0 C0.79841309 0.22042969 1.59682617 0.44085937 2.41943359 0.66796875 C24.93070869 7.07916633 43.99303374 17.91087002 61 34 C61.81210938 34.74765625 62.62421875 35.4953125 63.4609375 36.265625 C84.02782117 55.85931228 99.16543402 84.04248602 99.89376831 112.65549088 C99.97937591 117.64741557 99.9678119 122.63672494 99.91259766 127.62890625 C99.87270711 131.27034371 99.89641915 134.90820053 99.93668938 138.54951572 C100.09446758 155.3748041 98.98471776 170.41342261 92 186 C91.54898926 187.0533252 91.09797852 188.10665039 90.63330078 189.19189453 C89.55329658 191.54943761 88.3936343 193.80220367 87.125 196.0625 C86.70355713 196.83650146 86.28211426 197.61050293 85.84790039 198.40795898 C79.92267897 209.04231803 72.3390243 218.16356021 64 227 C63.32710937 227.73734375 62.65421875 228.4746875 61.9609375 229.234375 C52.64881942 239.06964579 41.62283184 246.41791172 29.75 252.8125 C28.96657227 253.2441748 28.18314453 253.67584961 27.37597656 254.12060547 C24.62848576 255.5468298 21.84930739 256.7888796 19 258 C18.10942902 258.39398483 18.10942902 258.39398483 17.2008667 258.79592896 C2.45823687 265.09728501 -12.73896082 264.96295255 -28.47802734 264.8371582 C-32.13514107 264.80861716 -35.78905224 264.83932983 -39.44588947 264.88487625 C-56.31236624 265.06575222 -71.37496162 264.01714124 -87 257 C-88.05316406 256.54890869 -89.10632812 256.09781738 -90.19140625 255.63305664 C-92.54929028 254.55332153 -94.80203722 253.39372772 -97.0625 252.125 C-97.83650146 251.70355713 -98.61050293 251.28211426 -99.40795898 250.84790039 C-110.04231803 244.92267897 -119.16356021 237.3390243 -128 229 C-128.73734375 228.32710937 -129.4746875 227.65421875 -130.234375 226.9609375 C-147.86358538 210.26945108 -158.61255006 188.13582926 -165 165 C-165.19207031 164.3188916 -165.38414063 163.6377832 -165.58203125 162.93603516 C-170.71348695 143.71755842 -170.38713665 118.10354581 -165 99 C-164.66935547 97.80238037 -164.66935547 97.80238037 -164.33203125 96.58056641 C-157.73831716 73.42843142 -146.50996136 54.46461899 -130 37 C-129.24203125 36.17757813 -128.4840625 35.35515625 -127.703125 34.5078125 C-111.09143329 17.08182217 -89.11980624 6.02775945 -66 0 C-64.85660156 -0.30035156 -63.71320313 -0.60070313 -62.53515625 -0.91015625 C-43.17255855 -5.13651006 -19.13544443 -5.39613195 0 0 Z " fill="#FCF9F5" transform="translate(1248,1893)"/>
<path d="M0 0 C2.82047799 2.47836489 4.25913577 5.14335644 5.93039227 8.48605442 C6.7962673 10.20699467 6.7962673 10.20699467 7.67963475 11.96270138 C8.31547779 13.24156479 8.95120808 14.52048427 9.58683777 15.79945374 C10.26538446 17.15380754 10.94445563 18.50789868 11.62400705 19.86174864 C13.49250456 23.58813344 15.35347182 27.31823559 17.21324718 31.0489794 C19.21912733 35.06956494 21.23190376 39.08669597 23.24382019 43.10426331 C27.18482867 50.97678098 31.11938182 58.85250804 35.05173346 66.72935278 C39.62761361 75.89471613 44.20958097 85.0570315 48.79174975 94.21925204 C56.96441261 110.56138631 65.13112383 126.90648767 73.29467773 143.25317383 C81.22372804 159.13028549 89.15754866 175.00500178 97.09643555 190.87719727 C105.73431183 208.14689837 114.36970227 225.4178379 123.00060636 242.69102472 C123.92005918 244.5311377 124.83951254 246.37125041 125.75896645 248.21136284 C126.21139557 249.11682462 126.66382469 250.0222864 127.12996378 250.95518642 C130.32515434 257.34945395 133.52206026 263.74286213 136.71956444 270.13597298 C140.61303503 277.92079679 144.50358115 285.70707388 148.39038535 293.49522836 C150.37518858 297.47210114 152.36127884 301.44831733 154.35080719 305.42282867 C156.16939491 309.05595012 157.98431869 312.69087643 159.79624263 316.32732563 C160.45491235 317.64761113 161.11495239 318.967214 161.77644505 320.2860874 C162.67033969 322.06882039 163.5588993 323.85422555 164.44713116 325.63978672 C164.94369801 326.63378721 165.44026487 327.6277877 165.9518792 328.65190941 C167 331 167 331 167 333 C57.11 333 -52.78 333 -166 333 C-164.57387573 328.72162718 -163.19825858 325.14675354 -161.21106625 321.17324352 C-160.63990737 320.02632697 -160.06874849 318.87941042 -159.48028177 317.69773883 C-158.84629679 316.43478333 -158.21223676 315.17186551 -157.57810974 313.90898132 C-156.90441375 312.56000057 -156.23106803 311.21084484 -155.55804211 309.86152965 C-153.70963086 306.15829756 -151.85624004 302.45757716 -150.00202048 298.75725067 C-148.00254292 294.76487557 -146.00767918 290.77019599 -144.01223755 286.77580261 C-140.10385421 278.95399496 -136.19120231 271.13433005 -132.27710205 263.31538191 C-127.72222791 254.21601457 -123.17153369 245.11455911 -118.62100614 236.01301751 C-110.50494133 219.7803873 -102.38501306 203.54969276 -94.26293945 187.32006836 C-86.37461782 171.55752272 -78.48910754 155.79357487 -70.60668945 140.02807617 C-70.12090002 139.05645736 -69.6351106 138.08483854 -69.13460027 137.08377673 C-68.64966472 136.11386528 -68.16472917 135.14395383 -67.66509861 134.14465111 C-58.69875437 116.21127362 -49.72978187 98.27921174 -40.75957857 80.34776425 C-37.58295973 73.99754805 -34.40712612 67.6469395 -31.23153496 61.29620934 C-27.36559463 53.5650093 -23.49815001 45.8345639 -19.62879901 38.10507026 C-17.65302779 34.15815869 -15.67789905 30.21092907 -13.70448112 26.26284027 C-11.90083386 22.65445607 -10.09536159 19.04699146 -8.28837574 15.44027803 C-7.63227304 14.12989582 -6.97685495 12.81917058 -6.32216208 11.50808343 C-5.43763783 9.73698963 -4.5504475 7.96722806 -3.66309261 6.19755077 C-3.16940117 5.21087231 -2.67570972 4.22419384 -2.16705793 3.20761603 C-1 1 -1 1 0 0 Z " fill="#F4381A" transform="translate(2020,1854)"/>
<path d="M0 0 C1.57455244 1.3190787 3.13715507 2.65255256 4.6875 4 C5.51765625 4.70898438 6.3478125 5.41796875 7.203125 6.1484375 C24.86996618 21.59337534 37.39726902 40.84298915 45 63 C45.23041992 63.66233643 45.46083984 64.32467285 45.69824219 65.00708008 C49.86062708 77.87166098 51.25105064 90.80591183 51.125 104.25 C51.12129395 104.9661145 51.11758789 105.682229 51.11376953 106.42004395 C50.85347703 141.92827917 37.0808913 173.1690628 12.18066406 198.52978516 C-13.28230325 223.60139882 -46.32570052 235.48603895 -81.61038208 235.43450928 C-117.93526963 235.13190582 -149.76254668 220.79826051 -175.3125 195 C-201.62784101 167.76942158 -211.03985497 133.37012357 -210.58203125 96.3828125 C-209.94149439 62.14252201 -193.14759489 31.06759254 -168.84521484 7.58203125 C-152.97305124 -7.27568729 -133.31319249 -17.58745039 -112.3125 -23 C-111.15621094 -23.30035156 -109.99992187 -23.60070312 -108.80859375 -23.91015625 C-71.16947848 -32.07605916 -30.38450019 -23.77917406 0 0 Z " fill="#FCF9F5" transform="translate(2100.3125,296)"/>
<path d="M0 0 C3.96950062 3.37437309 7.68962508 6.99810858 11.39160156 10.66113281 C12.13708252 11.39638184 12.88256348 12.13163086 13.65063477 12.88916016 C20.8494512 20.20355206 26.52087919 28.4071483 31.51660156 37.34863281 C31.89445801 38.02434326 32.27231445 38.70005371 32.66162109 39.39624023 C40.42814837 53.60954674 45.41990779 68.09403458 45.42285156 84.38769531 C45.43046509 85.57479095 45.43807861 86.7618866 45.44592285 87.98495483 C45.45666908 90.48425204 45.45959944 92.98359394 45.45507812 95.48291016 C45.45410947 99.25534273 45.49572469 103.02571352 45.54003906 106.79785156 C45.60746439 120.25348007 44.97265777 132.10374474 39.95410156 144.66113281 C39.60831055 145.55493652 39.26251953 146.44874023 38.90625 147.36962891 C38.03666082 149.47255993 37.09637553 151.5013227 36.07910156 153.53613281 C35.73814453 154.23681885 35.3971875 154.93750488 35.04589844 155.65942383 C30.13943595 165.55313703 24.0225435 174.19932245 16.95410156 182.66113281 C16.43976563 183.29921875 15.92542969 183.93730469 15.39550781 184.59472656 C1.81690827 201.11719593 -17.9775892 212.81212783 -38.04589844 219.66113281 C-38.91819092 220.0045874 -39.7904834 220.34804199 -40.68920898 220.7019043 C-51.97927049 224.63036613 -63.41082564 224.3009583 -75.23950195 224.23754883 C-78.84062543 224.22370116 -82.43913437 224.25782352 -86.04003906 224.29589844 C-99.25788988 224.3401888 -110.66414869 223.49224601 -123.04589844 218.66113281 C-123.73997299 218.39253952 -124.43404755 218.12394623 -125.14915466 217.84721375 C-141.21330864 211.58383951 -154.83611967 202.83351563 -167.04589844 190.66113281 C-167.89410156 189.81808594 -168.74230469 188.97503906 -169.61621094 188.10644531 C-170.81890625 186.89601563 -170.81890625 186.89601563 -172.04589844 185.66113281 C-172.74070312 184.96375 -173.43550781 184.26636719 -174.15136719 183.54785156 C-195.45044601 161.0499503 -205.51051266 130.72772808 -205.42089844 100.16113281 C-205.42035461 99.46036621 -205.41981079 98.75959961 -205.41925049 98.03759766 C-205.31166361 67.77556033 -194.9912605 36.49839398 -173.23339844 14.59863281 C-172.17686851 13.61302735 -171.11514786 12.6329246 -170.04589844 11.66113281 C-169.28277344 10.87738281 -168.51964844 10.09363281 -167.73339844 9.28613281 C-166.84652344 8.41988281 -165.95964844 7.55363281 -165.04589844 6.66113281 C-164.37300781 6.00371094 -163.70011719 5.34628906 -163.00683594 4.66894531 C-149.74133641 -7.81877249 -134.06273495 -15.73128507 -116.98339844 -21.65136719 C-116.30051758 -21.89395264 -115.61763672 -22.13653809 -114.9140625 -22.38647461 C-76.95420205 -34.92599413 -30.86358272 -24.64741988 0 0 Z " fill="#F53719" transform="translate(484.0458984375,1115.3388671875)"/>
<path d="M0 0 C3.89723595 1.58889213 6.54048883 4.24945724 9.46101379 7.18013 C10.26961673 7.97981957 10.26961673 7.97981957 11.09455508 8.79566449 C12.89961571 10.58338134 14.69745972 12.37818129 16.49536133 14.1730957 C17.78781327 15.45628955 19.08065958 16.7390863 20.37387085 18.02151489 C23.88476225 21.5061804 27.38897473 24.99748646 30.89121842 28.49084115 C33.07800796 30.67176874 35.265966 32.85151732 37.45429039 35.03090477 C44.29699375 41.84627088 51.1356877 48.66562243 57.96859723 55.49080783 C65.86409013 63.37732669 73.77250353 71.2505797 81.69239026 79.11259967 C87.80998024 85.18703159 93.91606499 91.27287127 100.01345271 97.36758107 C103.65758811 101.00961597 107.30646555 104.64658391 110.96732521 108.27181435 C114.40733088 111.67898631 117.83288481 115.10003852 121.24769211 118.53245926 C122.5054959 119.79181042 123.76847775 121.04601347 125.03685951 122.29471016 C126.76336847 123.99597657 128.47050629 125.71455927 130.17390442 127.43891907 C130.68380301 127.93270485 131.1937016 128.42649063 131.71905166 128.93523961 C133.83530122 131.11321422 134.97217657 132.41018421 135.11787319 135.49873829 C133.63954694 138.8065203 131.48447276 141.07512464 128.94012451 143.58126831 C128.40785256 144.12119136 127.8755806 144.66111441 127.32717919 145.21739876 C125.54102604 147.02419087 123.74089428 148.8163639 121.94042969 150.60888672 C120.65695221 151.90105816 119.37431344 153.19406314 118.092453 154.48783875 C114.60804525 157.99904714 111.11091256 161.49731464 107.61055279 164.99261236 C104.69173788 167.90928998 101.77889293 170.83189367 98.86594605 173.75442994 C91.99654355 180.64602836 85.11653018 187.52690672 78.22998047 194.40136719 C71.11825657 201.50099864 64.02510968 208.61881173 56.94074893 215.74573886 C50.86231857 221.85934887 44.77239332 227.96133781 38.67308927 234.05412304 C35.02820034 237.69537873 31.38794685 241.34098759 27.75875092 244.99789047 C24.34767607 248.43402926 20.92252559 251.85547336 17.48583412 255.26598549 C16.22488815 256.52218103 14.9690737 257.78355106 13.71874809 259.05031776 C12.01523203 260.7746148 10.29442055 262.47950903 8.56781006 264.18063354 C8.07334216 264.68985001 7.57887426 265.19906648 7.06942248 265.72371376 C4.89087989 267.83482669 3.58726833 268.97132613 0.50279331 269.12192822 C-2.82746514 267.62907185 -5.0988237 265.44088253 -7.61250305 262.86851501 C-8.15580409 262.32863168 -8.69910512 261.78874834 -9.25886983 261.2325049 C-11.07715938 259.42080455 -12.88078238 257.59517685 -14.68481445 255.76928711 C-15.98516882 254.4678045 -17.28640454 253.16720196 -18.5884552 251.86741638 C-22.12185287 248.33516766 -25.64277104 244.79071037 -29.16160989 241.24396586 C-32.8406785 237.53991403 -36.53105672 233.84716579 -40.22026062 230.1532135 C-47.20508326 223.15595208 -54.17964582 216.1485555 -61.15059775 209.13747841 C-69.08704992 201.15633678 -77.03484568 193.18653281 -84.9836241 185.21767032 C-101.33508739 168.82438225 -117.67222272 152.41687714 -134 136 C-132.40821971 132.07429348 -129.70805719 129.43359082 -126.7482605 126.50775146 C-126.20752274 125.96530485 -125.66678498 125.42285824 -125.10966122 124.86397386 C-123.29641438 123.0474326 -121.47611144 121.23813228 -119.65576172 119.42871094 C-118.3545611 118.12807444 -117.05380068 116.82699743 -115.75344849 115.5255127 C-112.22095427 111.99244401 -108.68232188 108.46558124 -105.14257193 104.93978405 C-101.44476067 101.25446442 -97.75260198 97.56349072 -94.05984497 93.87310791 C-87.06571575 86.88519806 -80.06650331 79.90240266 -73.06545937 72.92142129 C-65.09548347 64.97379013 -57.13117714 57.02048791 -49.16734672 49.0666995 C-32.78454084 32.70480599 -16.39461256 16.3500626 0 0 Z " fill="#FBF9F5" transform="translate(2024,2700)"/>
<path d="M0 0 C2.97 0 5.94 0 9 0 C9 1069.2 9 2138.4 9 3240 C6.03 3240 3.06 3240 0 3240 C0 2170.8 0 1101.6 0 0 Z " fill="#CED3D9" transform="translate(1611,1620)"/>
<path d="M0 0 C2.97 0 5.94 0 9 0 C9 798.93 9 1597.86 9 2421 C276.3 2421 543.6 2421 819 2421 C819 2423.97 819 2426.94 819 2430 C548.73 2430 278.46 2430 0 2430 C0 1628.1 0 826.2 0 0 Z " fill="#CED3D9" transform="translate(2421,810)"/>
<path d="M0 0 C1.26908203 0.00757324 2.53816406 0.01514648 3.84570312 0.02294922 C30.42576571 0.48765935 52.28162561 11.96912561 70.859375 30.546875 C79.20681647 39.41198726 85.2668755 50.16018294 89.75 61.4375 C90.09313232 62.22898437 90.43626465 63.02046875 90.78979492 63.8359375 C92.18855775 69.08245396 92.09545513 74.18896657 92.12109375 79.59765625 C92.13012222 80.77911728 92.1391507 81.96057831 92.14845276 83.17784119 C92.16294061 85.67672195 92.17183834 88.17564052 92.17553711 90.67456055 C92.18738349 94.46274412 92.23654568 98.24927162 92.28710938 102.03710938 C92.29658041 104.47395045 92.30381218 106.91080146 92.30859375 109.34765625 C92.32812607 110.46479507 92.34765839 111.5819339 92.36778259 112.73292542 C92.25804901 132.24668332 79.95366104 149.83741228 67 163.625 C57.25237476 172.88426727 46.1375277 179.39072946 33.75 184.4375 C32.93974365 184.78748047 32.1294873 185.13746094 31.29467773 185.49804688 C26.09578143 186.8759209 21.01830676 186.80326859 15.66015625 186.84375 C14.48343857 186.85515015 13.30672089 186.86655029 12.09434509 186.8782959 C9.60386733 186.89716261 7.11334 186.91025064 4.62280273 186.91796875 C0.85634218 186.93727527 -2.90788431 186.99930225 -6.67382812 187.0625 C-19.79986735 187.17787207 -30.61514354 186.91934414 -42.25 180.4375 C-43.34795898 179.86193359 -44.44591797 179.28636719 -45.57714844 178.69335938 C-52.83164073 174.80070497 -59.09649871 169.87570576 -65.25 164.4375 C-65.87390625 163.89738281 -66.4978125 163.35726562 -67.140625 162.80078125 C-77.16890388 153.49884967 -84.45118815 141.14114084 -89.25 128.4375 C-89.5068457 127.76219238 -89.76369141 127.08688477 -90.02832031 126.39111328 C-96.95682606 107.21098153 -97.21901857 83.63646293 -90.25 64.4375 C-89.87617188 63.38175781 -89.50234375 62.32601563 -89.1171875 61.23828125 C-84.48627949 49.26232378 -77.73295123 39.01981794 -69.25 29.4375 C-68.64800781 28.74011719 -68.04601563 28.04273438 -67.42578125 27.32421875 C-50.47462139 8.97578324 -24.45848387 -0.20567065 0 0 Z " fill="#FCF9F5" transform="translate(2839.25,1934.5625)"/>
<path d="M0 0 C2.97 0 5.94 0 9 0 C9 801.9 9 1603.8 9 2430 C6.03 2430 3.06 2430 0 2430 C0 1628.1 0 826.2 0 0 Z " fill="#CED3D9" transform="translate(801,2430)"/>
<path d="M0 0 C3.30027082 3.07671209 5.05761678 6.68907403 7.04325867 10.68537903 C7.44192652 11.47591807 7.84059437 12.2664571 8.25134307 13.08095187 C9.58826397 15.73577403 10.91654524 18.39482425 12.24487305 21.05395508 C13.20048764 22.95620982 14.15659502 24.85821708 15.11315918 26.75999451 C17.71176387 31.93066936 20.302543 37.10522725 22.89130378 42.28083634 C25.05156087 46.59850421 27.21509013 50.91452904 29.37846214 55.23063678 C34.48119871 65.41167126 39.57707886 75.59611804 44.66918945 85.7824707 C49.92565804 96.29721092 55.19547823 106.80518305 60.471605 117.31007081 C64.99823506 126.32413375 69.51562407 135.34278701 74.02581435 144.36508673 C76.72087566 149.7559751 79.41964984 155.14492503 82.12769127 160.52930641 C84.67373271 165.59239474 87.20823978 170.66108956 89.73394012 175.73435402 C90.66341273 177.59644269 91.59699853 179.4564847 92.53495979 181.31431198 C93.81369995 183.84870692 95.07745868 186.3900342 96.33769226 188.93367004 C96.71306789 189.66899061 97.08844351 190.40431117 97.47519416 191.16191417 C97.81123343 191.84778911 98.1472727 192.53366404 98.49349499 193.24032307 C98.78653175 193.82574448 99.0795685 194.41116589 99.38148516 195.01432735 C100 197 100 197 100 203 C33.67 203 -32.66 203 -101 203 C-98.74999353 196.2499806 -98.74999353 196.2499806 -97.22619534 193.2035017 C-96.88145717 192.50942658 -96.53671901 191.81535145 -96.18153423 191.10024375 C-95.8067291 190.35577705 -95.43192397 189.61131035 -95.04576111 188.84428406 C-94.64456969 188.03948681 -94.24337828 187.23468957 -93.83002955 186.40550452 C-92.48805575 183.71593222 -91.14039449 181.02925141 -89.79272461 178.3425293 C-88.82820936 176.41242565 -87.86404054 174.48214884 -86.90019226 172.55171204 C-84.28415483 167.31479237 -81.66312764 162.08038464 -79.04109263 156.84646583 C-76.30028547 151.37363328 -73.56369472 145.89869305 -70.82655334 140.42402649 C-66.23174102 131.23533813 -61.63383346 122.048204 -57.03393555 112.86206055 C-51.70894391 102.22782294 -46.38815274 91.59149232 -41.06975168 80.95395726 C-35.95872897 70.73130252 -30.84542536 60.50979059 -25.73083687 50.28891945 C-23.55119487 45.93317408 -21.37223848 41.57708675 -19.19379997 37.22073936 C-16.63237475 32.09888998 -14.06892157 26.9780607 -11.50386238 21.85803032 C-10.56023838 19.97371432 -9.61730012 18.08905476 -8.67507935 16.20403671 C-7.39431813 13.64202704 -6.11112175 11.08125235 -4.82725525 8.52079773 C-4.4502194 7.76517742 -4.07318354 7.00955712 -3.68472236 6.23103923 C-1.11417913 1.11417913 -1.11417913 1.11417913 0 0 Z " fill="#FBF8F4" transform="translate(409,1926)"/>
<path d="M0 0 C0.66 0 1.32 0 2 0 C13.60900572 23.17135125 25.21346651 46.34497357 36.81247711 69.52132988 C42.19784814 80.28174649 47.58472045 91.04140663 52.97509766 101.79931641 C57.67173909 111.17270414 62.36559405 120.5474809 67.05606699 129.92395699 C69.54117557 134.8915602 72.02770181 139.85844251 74.51756287 144.82366562 C76.85857594 149.49216907 79.19587335 154.16251326 81.53027153 158.8343277 C82.38997245 160.55317699 83.25105612 162.27133544 84.11358833 163.98876572 C85.28647751 166.32466605 86.45447169 168.6629484 87.62121582 171.00192261 C87.96751022 171.68868572 88.31380462 172.37544883 88.67059278 173.08302295 C91 177.77175758 91 177.77175758 91 180 C31.6 180 -27.8 180 -89 180 C-87.4302428 175.2907284 -85.67423935 171.06913715 -83.45663452 166.67276001 C-82.92116766 165.59926302 -82.92116766 165.59926302 -82.37488329 164.50407922 C-81.18258596 162.11620094 -79.98460822 159.73121958 -78.78662109 157.34619141 C-77.92885039 155.63121436 -77.07143231 153.91606092 -76.21434021 152.20074463 C-73.88959959 147.55068982 -71.55993582 142.90311725 -69.22938108 138.25597429 C-66.79350135 133.39672157 -64.36215569 128.53520133 -61.93032837 123.67391968 C-57.32598303 114.47144392 -52.71756306 105.271015 -48.10767615 96.07131422 C-42.85910655 85.59653361 -37.6150827 75.11947967 -32.3714397 64.64223218 C-21.58601641 43.09228788 -10.7948869 21.54520512 0 0 Z " fill="#CAD3D3" transform="translate(2834,1125)"/>
<path d="M0 0 C5.92804385 5.12143968 11.076327 10.82030103 15.5 17.28125 C16.0971582 18.05694336 16.69431641 18.83263672 17.30957031 19.63183594 C24.26969654 30.11842612 23.5965105 41.31932171 23.4675293 53.50927734 C23.43761063 57.14281464 23.48767112 60.76925509 23.54492188 64.40234375 C23.60297552 77.95987525 22.73816257 88.25890684 14.5 99.28125 C13.97059814 100.0144043 13.44119629 100.74755859 12.89575195 101.50292969 C11.57313755 103.19036389 10.20217077 104.70381549 8.6875 106.21875 C8.18033447 106.7446875 7.67316895 107.270625 7.15063477 107.8125 C-2.5950053 117.66556755 -14.1003231 125.70991064 -28.31538391 126.02728271 C-29.87049934 126.02151215 -29.87049934 126.02151215 -31.45703125 126.015625 C-32.56245773 126.02515198 -33.66788422 126.03467896 -34.80680847 126.04449463 C-37.13037022 126.05658344 -39.45403067 126.05589805 -41.77758789 126.04296875 C-45.29426506 126.03131045 -48.80611288 126.08357574 -52.32226562 126.140625 C-65.02787193 126.21543312 -74.8954794 125.7442751 -85.5 118.28125 C-86.3880835 117.66435303 -87.27616699 117.04745605 -88.19116211 116.41186523 C-90.4081094 114.80258462 -92.45610455 113.10396238 -94.5 111.28125 C-95.41845703 110.46720703 -95.41845703 110.46720703 -96.35546875 109.63671875 C-108.96625803 97.74972753 -117.01485253 81.00243159 -117.81640625 63.71875 C-118.39752788 43.02819342 -114.39087778 24.4723236 -100.125 8.84375 C-73.98768921 -18.45063461 -30.45423125 -24.68691725 0 0 Z " fill="#FCF9F5" transform="translate(1260.5,4397.71875)"/>
<path d="M0 0 C2.97 0 5.94 0 9 0 C9 264.33 9 528.66 9 801 C276.3 801 543.6 801 819 801 C819 803.97 819 806.94 819 810 C548.73 810 278.46 810 0 810 C0 542.7 0 275.4 0 0 Z " fill="#CED3D9" transform="translate(801,0)"/>
<path d="M0 0 C2.97 0 5.94 0 9 0 C9 267.3 9 534.6 9 810 C6.03 810 3.06 810 0 810 C0 542.7 0 275.4 0 0 Z " fill="#CED3D9" transform="translate(2421,4050)"/>
</svg>
